<svg xmlns="http://www.w3.org/2000/svg" xmlns:xlink="http://www.w3.org/1999/xlink" width="1920" zoomAndPan="magnify" viewBox="0 0 1440 809.999993" height="1080" preserveAspectRatio="xMidYMid meet" version="1.0"><defs><g/><clipPath id="983efbe45f"><path d="M 680.160156 333 L 686.417969 333 L 686.417969 524.65625 L 680.160156 524.65625 Z M 680.160156 333 " clip-rule="nonzero"/></clipPath><clipPath id="d124bbf3d5"><path d="M 400.476562 442.863281 L 492.78125 442.863281 L 492.78125 535.171875 L 400.476562 535.171875 Z M 400.476562 442.863281 " clip-rule="nonzero"/></clipPath></defs><g fill="#ffffff" fill-opacity="1"><g transform="translate(422.320233, 401.590916)"><g><path d="M 120.6875 -109.578125 C 118.75 -109.296875 117.003906 -108.847656 115.453125 -108.234375 C 113.910156 -107.628906 112.671875 -106.828125 111.734375 -105.828125 C 108.847656 -103.171875 106.21875 -99.023438 103.84375 -93.390625 L 64.65625 2.65625 L 61.515625 2.65625 L 19.5 -94.546875 C 18.507812 -96.984375 17.65625 -98.878906 16.9375 -100.234375 C 16.21875 -101.585938 15.578125 -102.632812 15.015625 -103.375 C 14.460938 -104.125 13.960938 -104.679688 13.515625 -105.046875 C 13.078125 -105.410156 12.613281 -105.785156 12.125 -106.171875 C 10.84375 -107.160156 9.398438 -107.914062 7.796875 -108.4375 C 6.191406 -108.96875 4.0625 -109.347656 1.40625 -109.578125 L 1.40625 -112.5625 L 47.484375 -112.5625 L 47.484375 -109.578125 C 44.160156 -109.296875 41.597656 -108.835938 39.796875 -108.203125 C 38.003906 -107.566406 36.75 -106.664062 36.03125 -105.5 C 35.03125 -104.0625 34.765625 -102.023438 35.234375 -99.390625 C 35.703125 -96.765625 36.878906 -93.296875 38.765625 -88.984375 L 67.5625 -22.90625 L 94.125 -88.328125 C 95.726562 -92.472656 96.863281 -95.816406 97.53125 -98.359375 C 98.195312 -100.910156 98.085938 -102.929688 97.203125 -104.421875 C 96.921875 -104.921875 96.554688 -105.390625 96.109375 -105.828125 C 95.671875 -106.273438 95.050781 -106.71875 94.25 -107.15625 C 93.445312 -107.601562 92.394531 -108.035156 91.09375 -108.453125 C 89.800781 -108.867188 88.128906 -109.242188 86.078125 -109.578125 L 86.078125 -112.5625 L 120.6875 -112.5625 Z M 120.6875 -109.578125 "/></g></g></g><g fill="#ffffff" fill-opacity="1"><g transform="translate(498.161045, 401.25)"><g><path d="M 54.03125 0 L 54.03125 -2.234375 C 56.800781 -2.265625 58.769531 -2.660156 59.9375 -3.421875 C 61.113281 -4.191406 61.796875 -5.179688 61.984375 -6.390625 C 62.179688 -7.597656 62.015625 -8.972656 61.484375 -10.515625 C 60.960938 -12.054688 60.367188 -13.628906 59.703125 -15.234375 L 54.96875 -26.65625 L 24.140625 -26.65625 L 18.75 -14 C 18.007812 -12.207031 17.441406 -10.625 17.046875 -9.25 C 16.660156 -7.882812 16.671875 -6.710938 17.078125 -5.734375 C 17.492188 -4.765625 18.394531 -3.992188 19.78125 -3.421875 C 21.164062 -2.859375 23.242188 -2.460938 26.015625 -2.234375 L 26.015625 0 L 0.875 0 L 0.875 -2.234375 C 2.5625 -2.347656 4.03125 -2.707031 5.28125 -3.3125 C 6.53125 -3.914062 7.648438 -4.785156 8.640625 -5.921875 C 9.640625 -7.054688 10.566406 -8.453125 11.421875 -10.109375 C 12.285156 -11.765625 13.1875 -13.671875 14.125 -15.828125 L 42.015625 -81.328125 L 44.125 -81.328125 L 71.71875 -15.234375 C 72.894531 -12.460938 73.953125 -10.242188 74.890625 -8.578125 C 75.828125 -6.921875 76.789062 -5.644531 77.78125 -4.75 C 78.78125 -3.851562 79.875 -3.238281 81.0625 -2.90625 C 82.257812 -2.570312 83.675781 -2.347656 85.3125 -2.234375 L 85.3125 0 Z M 39.84375 -63.171875 L 26.015625 -30.9375 L 53.328125 -30.9375 Z M 39.84375 -63.171875 "/></g></g></g><g fill="#ffffff" fill-opacity="1"><g transform="translate(587.274889, 401.25)"><g><path d="M 63.984375 0 L 2.234375 0 L 2.234375 -2.234375 C 3.953125 -2.234375 5.53125 -2.328125 6.96875 -2.515625 C 8.414062 -2.710938 9.644531 -3.144531 10.65625 -3.8125 C 11.675781 -4.476562 12.46875 -5.460938 13.03125 -6.765625 C 13.601562 -8.078125 13.890625 -9.863281 13.890625 -12.125 L 13.890625 -67.328125 C 13.890625 -69.585938 13.601562 -71.375 13.03125 -72.6875 C 12.46875 -74 11.675781 -74.992188 10.65625 -75.671875 C 9.644531 -76.359375 8.414062 -76.789062 6.96875 -76.96875 C 5.53125 -77.144531 3.953125 -77.234375 2.234375 -77.234375 L 2.234375 -79.453125 L 36.734375 -79.453125 L 36.734375 -77.234375 C 34.984375 -77.234375 33.394531 -77.144531 31.96875 -76.96875 C 30.539062 -76.789062 29.304688 -76.359375 28.265625 -75.671875 C 27.234375 -74.992188 26.429688 -74 25.859375 -72.6875 C 25.296875 -71.375 25.015625 -69.585938 25.015625 -67.328125 L 25.015625 -15 C 25.015625 -12.738281 25.207031 -10.953125 25.59375 -9.640625 C 25.988281 -8.328125 26.597656 -7.335938 27.421875 -6.671875 C 28.242188 -6.015625 29.28125 -5.585938 30.53125 -5.390625 C 31.78125 -5.191406 33.285156 -5.09375 35.046875 -5.09375 L 43.0625 -5.09375 C 45.488281 -5.09375 47.570312 -5.128906 49.3125 -5.203125 C 51.050781 -5.285156 52.5625 -5.453125 53.84375 -5.703125 C 55.132812 -5.960938 56.269531 -6.316406 57.25 -6.765625 C 58.226562 -7.210938 59.125 -7.8125 59.9375 -8.5625 C 60.957031 -9.414062 61.847656 -10.257812 62.609375 -11.09375 C 63.367188 -11.9375 64.085938 -12.863281 64.765625 -13.875 C 65.453125 -14.894531 66.117188 -16.050781 66.765625 -17.34375 C 67.410156 -18.632812 68.101562 -20.160156 68.84375 -21.921875 L 70.90625 -21.625 Z M 63.984375 0 "/></g></g></g><g fill="#ffffff" fill-opacity="1"><g transform="translate(663.575589, 401.25)"><g><path d="M 63.75 0 L 2.515625 0 L 2.515625 -2.234375 L 5.28125 -2.234375 C 5.625 -2.234375 6.0625 -2.257812 6.59375 -2.3125 C 7.125 -2.375 7.691406 -2.472656 8.296875 -2.609375 C 8.898438 -2.742188 9.492188 -2.925781 10.078125 -3.15625 C 10.660156 -3.394531 11.148438 -3.691406 11.546875 -4.046875 C 11.929688 -4.398438 12.269531 -4.789062 12.5625 -5.21875 C 12.863281 -5.644531 13.109375 -6.226562 13.296875 -6.96875 C 13.492188 -7.71875 13.640625 -8.65625 13.734375 -9.78125 C 13.835938 -10.914062 13.890625 -12.363281 13.890625 -14.125 L 13.890625 -65.6875 C 13.890625 -68.257812 13.75 -70.316406 13.46875 -71.859375 C 13.195312 -73.410156 12.828125 -74.4375 12.359375 -74.9375 C 10.953125 -76.539062 8.59375 -77.34375 5.28125 -77.34375 L 2.515625 -77.34375 L 2.515625 -79.453125 L 63.75 -79.453125 L 64.6875 -62.171875 L 62.34375 -62.171875 C 62.070312 -63.304688 61.828125 -64.410156 61.609375 -65.484375 C 61.398438 -66.554688 61.109375 -67.578125 60.734375 -68.546875 C 60.359375 -69.523438 59.878906 -70.414062 59.296875 -71.21875 C 58.710938 -72.019531 57.898438 -72.710938 56.859375 -73.296875 C 55.828125 -73.890625 54.519531 -74.347656 52.9375 -74.671875 C 51.351562 -75.003906 49.390625 -75.171875 47.046875 -75.171875 L 25.015625 -75.171875 L 25.015625 -43.765625 L 42.546875 -43.765625 C 45.234375 -43.765625 47.347656 -43.976562 48.890625 -44.40625 C 50.441406 -44.84375 51.625 -45.53125 52.4375 -46.46875 C 53.257812 -47.40625 53.835938 -48.59375 54.171875 -50.03125 C 54.503906 -51.476562 54.804688 -53.203125 55.078125 -55.203125 L 57.3125 -55.203125 L 57.3125 -27.59375 L 55.078125 -27.59375 C 54.804688 -29.664062 54.492188 -31.441406 54.140625 -32.921875 C 53.785156 -34.410156 53.195312 -35.632812 52.375 -36.59375 C 51.5625 -37.550781 50.390625 -38.253906 48.859375 -38.703125 C 47.335938 -39.148438 45.234375 -39.375 42.546875 -39.375 L 25.015625 -39.375 L 25.015625 -9.609375 C 25.015625 -8.554688 25.203125 -7.628906 25.578125 -6.828125 C 25.953125 -6.023438 26.609375 -5.398438 27.546875 -4.953125 C 28.484375 -4.503906 29.890625 -4.28125 31.765625 -4.28125 L 45.171875 -4.28125 C 47.328125 -4.28125 49.222656 -4.367188 50.859375 -4.546875 C 52.503906 -4.722656 53.976562 -5.023438 55.28125 -5.453125 C 56.59375 -5.878906 57.765625 -6.472656 58.796875 -7.234375 C 59.835938 -7.992188 60.851562 -8.953125 61.84375 -10.109375 C 62.84375 -11.265625 63.847656 -12.648438 64.859375 -14.265625 C 65.878906 -15.890625 67.015625 -17.796875 68.265625 -19.984375 L 70.671875 -19.984375 Z M 63.75 0 "/></g></g></g><g fill="#ffffff" fill-opacity="1"><g transform="translate(739.668713, 401.25)"><g><path d="M 59.9375 0 L 33.046875 -37.15625 C 31.992188 -37.113281 31.078125 -37.0625 30.296875 -37 C 29.515625 -36.945312 28.8125 -36.921875 28.1875 -36.921875 C 27.601562 -36.921875 27.023438 -36.925781 26.453125 -36.9375 C 25.890625 -36.957031 25.273438 -37.03125 24.609375 -37.15625 L 24.609375 -14.125 C 24.609375 -9.039062 25.175781 -5.953125 26.3125 -4.859375 C 27.789062 -3.109375 30.035156 -2.234375 33.046875 -2.234375 L 36.15625 -2.234375 L 36.15625 0 L 2.109375 0 L 2.109375 -2.234375 L 5.09375 -2.234375 C 8.53125 -2.234375 10.914062 -3.285156 12.25 -5.390625 C 13.03125 -6.640625 13.421875 -9.550781 13.421875 -14.125 L 13.421875 -65.453125 C 13.421875 -70.335938 12.910156 -73.460938 11.890625 -74.828125 C 11.078125 -75.648438 10.113281 -76.273438 9 -76.703125 C 7.882812 -77.128906 6.582031 -77.34375 5.09375 -77.34375 L 2.109375 -77.34375 L 2.109375 -79.453125 L 30.9375 -79.453125 C 35.195312 -79.453125 38.898438 -79.304688 42.046875 -79.015625 C 45.191406 -78.722656 47.78125 -78.242188 49.8125 -77.578125 C 51.84375 -76.910156 53.722656 -76 55.453125 -74.84375 C 57.191406 -73.695312 58.707031 -72.34375 60 -70.78125 C 61.289062 -69.21875 62.296875 -67.457031 63.015625 -65.5 C 63.742188 -63.550781 64.109375 -61.445312 64.109375 -59.1875 C 64.109375 -56.71875 63.71875 -54.398438 62.9375 -52.234375 C 62.15625 -50.066406 60.953125 -48.101562 59.328125 -46.34375 C 57.703125 -44.59375 55.671875 -43.0625 53.234375 -41.75 C 50.796875 -40.4375 47.914062 -39.410156 44.59375 -38.671875 L 60.828125 -15.828125 C 62.617188 -13.328125 64.273438 -11.242188 65.796875 -9.578125 C 67.328125 -7.921875 68.875 -6.582031 70.4375 -5.5625 C 72 -4.550781 73.640625 -3.800781 75.359375 -3.3125 C 77.078125 -2.820312 79.03125 -2.460938 81.21875 -2.234375 L 81.21875 0 Z M 50.921875 -58.1875 C 50.921875 -60.6875 50.519531 -62.960938 49.71875 -65.015625 C 48.914062 -67.066406 47.769531 -68.820312 46.28125 -70.28125 C 44.800781 -71.75 43.003906 -72.898438 40.890625 -73.734375 C 38.785156 -74.578125 36.425781 -75.019531 33.8125 -75.0625 C 32.789062 -75.0625 31.507812 -74.972656 29.96875 -74.796875 C 28.425781 -74.617188 26.640625 -74.375 24.609375 -74.0625 L 24.609375 -40.90625 L 27.953125 -40.90625 C 31.859375 -40.90625 35.242188 -41.332031 38.109375 -42.1875 C 40.984375 -43.050781 43.367188 -44.253906 45.265625 -45.796875 C 47.160156 -47.335938 48.578125 -49.160156 49.515625 -51.265625 C 50.453125 -53.378906 50.921875 -55.6875 50.921875 -58.1875 Z M 50.921875 -58.1875 "/></g></g></g><g fill="#ffffff" fill-opacity="1"><g transform="translate(822.825013, 401.25)"><g><path d="M 2.984375 0 L 2.984375 -2.234375 L 5.859375 -2.234375 C 7.503906 -2.234375 8.890625 -2.457031 10.015625 -2.90625 C 11.148438 -3.351562 12.109375 -4.082031 12.890625 -5.09375 C 13.828125 -6.1875 14.296875 -9.195312 14.296875 -14.125 L 14.296875 -65.453125 C 14.296875 -66.816406 14.285156 -67.976562 14.265625 -68.9375 C 14.242188 -69.894531 14.191406 -70.710938 14.109375 -71.390625 C 14.035156 -72.078125 13.910156 -72.65625 13.734375 -73.125 C 13.566406 -73.59375 13.328125 -74.003906 13.015625 -74.359375 C 12.265625 -75.296875 11.222656 -76.023438 9.890625 -76.546875 C 8.566406 -77.078125 7.222656 -77.34375 5.859375 -77.34375 L 2.984375 -77.34375 L 2.984375 -79.453125 L 37.03125 -79.453125 L 37.03125 -77.34375 L 34.15625 -77.34375 C 31.03125 -77.34375 28.6875 -76.382812 27.125 -74.46875 C 26.695312 -73.8125 26.347656 -72.738281 26.078125 -71.25 C 25.804688 -69.769531 25.671875 -67.835938 25.671875 -65.453125 L 25.671875 -14.125 C 25.671875 -11.539062 25.785156 -9.546875 26.015625 -8.140625 C 26.253906 -6.734375 26.585938 -5.679688 27.015625 -4.984375 C 27.210938 -4.671875 27.5625 -4.347656 28.0625 -4.015625 C 28.570312 -3.679688 29.164062 -3.382812 29.84375 -3.125 C 30.53125 -2.875 31.242188 -2.660156 31.984375 -2.484375 C 32.734375 -2.316406 33.457031 -2.234375 34.15625 -2.234375 L 37.03125 -2.234375 L 37.03125 0 Z M 2.984375 0 "/></g></g></g><g fill="#ffffff" fill-opacity="1"><g transform="translate(865.785971, 401.25)"><g><path d="M 54.03125 0 L 54.03125 -2.234375 C 56.800781 -2.265625 58.769531 -2.660156 59.9375 -3.421875 C 61.113281 -4.191406 61.796875 -5.179688 61.984375 -6.390625 C 62.179688 -7.597656 62.015625 -8.972656 61.484375 -10.515625 C 60.960938 -12.054688 60.367188 -13.628906 59.703125 -15.234375 L 54.96875 -26.65625 L 24.140625 -26.65625 L 18.75 -14 C 18.007812 -12.207031 17.441406 -10.625 17.046875 -9.25 C 16.660156 -7.882812 16.671875 -6.710938 17.078125 -5.734375 C 17.492188 -4.765625 18.394531 -3.992188 19.78125 -3.421875 C 21.164062 -2.859375 23.242188 -2.460938 26.015625 -2.234375 L 26.015625 0 L 0.875 0 L 0.875 -2.234375 C 2.5625 -2.347656 4.03125 -2.707031 5.28125 -3.3125 C 6.53125 -3.914062 7.648438 -4.785156 8.640625 -5.921875 C 9.640625 -7.054688 10.566406 -8.453125 11.421875 -10.109375 C 12.285156 -11.765625 13.1875 -13.671875 14.125 -15.828125 L 42.015625 -81.328125 L 44.125 -81.328125 L 71.71875 -15.234375 C 72.894531 -12.460938 73.953125 -10.242188 74.890625 -8.578125 C 75.828125 -6.921875 76.789062 -5.644531 77.78125 -4.75 C 78.78125 -3.851562 79.875 -3.238281 81.0625 -2.90625 C 82.257812 -2.570312 83.675781 -2.347656 85.3125 -2.234375 L 85.3125 0 Z M 39.84375 -63.171875 L 26.015625 -30.9375 L 53.328125 -30.9375 Z M 39.84375 -63.171875 "/></g></g></g><g fill="#ffffff" fill-opacity="1"><g transform="translate(492.749981, 533.499953)"><g><path d="M 120.6875 -109.578125 C 118.75 -109.296875 117.003906 -108.847656 115.453125 -108.234375 C 113.910156 -107.628906 112.671875 -106.828125 111.734375 -105.828125 C 108.847656 -103.171875 106.21875 -99.023438 103.84375 -93.390625 L 64.65625 2.65625 L 61.515625 2.65625 L 19.5 -94.546875 C 18.507812 -96.984375 17.65625 -98.878906 16.9375 -100.234375 C 16.21875 -101.585938 15.578125 -102.632812 15.015625 -103.375 C 14.460938 -104.125 13.960938 -104.679688 13.515625 -105.046875 C 13.078125 -105.410156 12.613281 -105.785156 12.125 -106.171875 C 10.84375 -107.160156 9.398438 -107.914062 7.796875 -108.4375 C 6.191406 -108.96875 4.0625 -109.347656 1.40625 -109.578125 L 1.40625 -112.5625 L 47.484375 -112.5625 L 47.484375 -109.578125 C 44.160156 -109.296875 41.597656 -108.835938 39.796875 -108.203125 C 38.003906 -107.566406 36.75 -106.664062 36.03125 -105.5 C 35.03125 -104.0625 34.765625 -102.023438 35.234375 -99.390625 C 35.703125 -96.765625 36.878906 -93.296875 38.765625 -88.984375 L 67.5625 -22.90625 L 94.125 -88.328125 C 95.726562 -92.472656 96.863281 -95.816406 97.53125 -98.359375 C 98.195312 -100.910156 98.085938 -102.929688 97.203125 -104.421875 C 96.921875 -104.921875 96.554688 -105.390625 96.109375 -105.828125 C 95.671875 -106.273438 95.050781 -106.71875 94.25 -107.15625 C 93.445312 -107.601562 92.394531 -108.035156 91.09375 -108.453125 C 89.800781 -108.867188 88.128906 -109.242188 86.078125 -109.578125 L 86.078125 -112.5625 L 120.6875 -112.5625 Z M 120.6875 -109.578125 "/></g></g></g><g fill="#ffffff" fill-opacity="1"><g transform="translate(600.749976, 533.249993)"><g><path d="M 2.984375 0 L 2.984375 -2.234375 L 5.859375 -2.234375 C 7.503906 -2.234375 8.890625 -2.457031 10.015625 -2.90625 C 11.148438 -3.351562 12.109375 -4.082031 12.890625 -5.09375 C 13.828125 -6.1875 14.296875 -9.195312 14.296875 -14.125 L 14.296875 -65.453125 C 14.296875 -66.816406 14.285156 -67.976562 14.265625 -68.9375 C 14.242188 -69.894531 14.191406 -70.710938 14.109375 -71.390625 C 14.035156 -72.078125 13.910156 -72.65625 13.734375 -73.125 C 13.566406 -73.59375 13.328125 -74.003906 13.015625 -74.359375 C 12.265625 -75.296875 11.222656 -76.023438 9.890625 -76.546875 C 8.566406 -77.078125 7.222656 -77.34375 5.859375 -77.34375 L 2.984375 -77.34375 L 2.984375 -79.453125 L 37.03125 -79.453125 L 37.03125 -77.34375 L 34.15625 -77.34375 C 31.03125 -77.34375 28.6875 -76.382812 27.125 -74.46875 C 26.695312 -73.8125 26.347656 -72.738281 26.078125 -71.25 C 25.804688 -69.769531 25.671875 -67.835938 25.671875 -65.453125 L 25.671875 -14.125 C 25.671875 -11.539062 25.785156 -9.546875 26.015625 -8.140625 C 26.253906 -6.734375 26.585938 -5.679688 27.015625 -4.984375 C 27.210938 -4.671875 27.5625 -4.347656 28.0625 -4.015625 C 28.570312 -3.679688 29.164062 -3.382812 29.84375 -3.125 C 30.53125 -2.875 31.242188 -2.660156 31.984375 -2.484375 C 32.734375 -2.316406 33.457031 -2.234375 34.15625 -2.234375 L 37.03125 -2.234375 L 37.03125 0 Z M 2.984375 0 "/></g></g></g><g fill="#ffffff" fill-opacity="1"><g transform="translate(664.117941, 533.249993)"><g><path d="M 63.984375 0 L 2.234375 0 L 2.234375 -2.234375 C 3.953125 -2.234375 5.53125 -2.328125 6.96875 -2.515625 C 8.414062 -2.710938 9.644531 -3.144531 10.65625 -3.8125 C 11.675781 -4.476562 12.46875 -5.460938 13.03125 -6.765625 C 13.601562 -8.078125 13.890625 -9.863281 13.890625 -12.125 L 13.890625 -67.328125 C 13.890625 -69.585938 13.601562 -71.375 13.03125 -72.6875 C 12.46875 -74 11.675781 -74.992188 10.65625 -75.671875 C 9.644531 -76.359375 8.414062 -76.789062 6.96875 -76.96875 C 5.53125 -77.144531 3.953125 -77.234375 2.234375 -77.234375 L 2.234375 -79.453125 L 36.734375 -79.453125 L 36.734375 -77.234375 C 34.984375 -77.234375 33.394531 -77.144531 31.96875 -76.96875 C 30.539062 -76.789062 29.304688 -76.359375 28.265625 -75.671875 C 27.234375 -74.992188 26.429688 -74 25.859375 -72.6875 C 25.296875 -71.375 25.015625 -69.585938 25.015625 -67.328125 L 25.015625 -15 C 25.015625 -12.738281 25.207031 -10.953125 25.59375 -9.640625 C 25.988281 -8.328125 26.597656 -7.335938 27.421875 -6.671875 C 28.242188 -6.015625 29.28125 -5.585938 30.53125 -5.390625 C 31.78125 -5.191406 33.285156 -5.09375 35.046875 -5.09375 L 43.0625 -5.09375 C 45.488281 -5.09375 47.570312 -5.128906 49.3125 -5.203125 C 51.050781 -5.285156 52.5625 -5.453125 53.84375 -5.703125 C 55.132812 -5.960938 56.269531 -6.316406 57.25 -6.765625 C 58.226562 -7.210938 59.125 -7.8125 59.9375 -8.5625 C 60.957031 -9.414062 61.847656 -10.257812 62.609375 -11.09375 C 63.367188 -11.9375 64.085938 -12.863281 64.765625 -13.875 C 65.453125 -14.894531 66.117188 -16.050781 66.765625 -17.34375 C 67.410156 -18.632812 68.101562 -20.160156 68.84375 -21.921875 L 70.90625 -21.625 Z M 63.984375 0 "/></g></g></g><g fill="#ffffff" fill-opacity="1"><g transform="translate(737.418713, 533.249993)"><g><path d="M 75.875 -18.640625 C 73.925781 -15.160156 71.816406 -12.140625 69.546875 -9.578125 C 67.285156 -7.023438 64.804688 -4.894531 62.109375 -3.1875 C 59.410156 -1.488281 56.476562 -0.222656 53.3125 0.609375 C 50.15625 1.453125 46.703125 1.875 42.953125 1.875 C 38.890625 1.875 35.117188 1.375 31.640625 0.375 C 28.160156 -0.613281 24.984375 -2 22.109375 -3.78125 C 19.242188 -5.5625 16.707031 -7.703125 14.5 -10.203125 C 12.289062 -12.703125 10.425781 -15.441406 8.90625 -18.421875 C 7.382812 -21.410156 6.234375 -24.613281 5.453125 -28.03125 C 4.671875 -31.457031 4.28125 -34.96875 4.28125 -38.5625 C 4.28125 -44.34375 5.242188 -49.816406 7.171875 -54.984375 C 9.109375 -60.160156 11.84375 -64.703125 15.375 -68.609375 C 18.914062 -72.515625 23.1875 -75.609375 28.1875 -77.890625 C 33.1875 -80.179688 38.734375 -81.328125 44.828125 -81.328125 C 47.835938 -81.328125 50.484375 -81.035156 52.765625 -80.453125 C 55.046875 -79.867188 57.015625 -79.234375 58.671875 -78.546875 C 60.335938 -77.859375 61.71875 -77.222656 62.8125 -76.640625 C 63.90625 -76.054688 64.742188 -75.765625 65.328125 -75.765625 C 66.390625 -75.765625 67.359375 -76.222656 68.234375 -77.140625 C 69.109375 -78.054688 69.765625 -79.453125 70.203125 -81.328125 L 72.3125 -81.328125 L 74.1875 -54.3125 L 72.3125 -54.3125 C 71.09375 -58.375 69.601562 -61.847656 67.84375 -64.734375 C 66.09375 -67.628906 64.09375 -69.992188 61.84375 -71.828125 C 59.601562 -73.671875 57.132812 -75.019531 54.4375 -75.875 C 51.738281 -76.738281 48.847656 -77.171875 45.765625 -77.171875 C 41.660156 -77.171875 37.890625 -76.398438 34.453125 -74.859375 C 31.015625 -73.316406 28.054688 -70.941406 25.578125 -67.734375 C 23.097656 -64.535156 21.15625 -60.515625 19.75 -55.671875 C 18.34375 -50.828125 17.640625 -45.082031 17.640625 -38.4375 C 17.640625 -32.769531 18.351562 -27.75 19.78125 -23.375 C 21.207031 -19 23.226562 -15.328125 25.84375 -12.359375 C 28.457031 -9.390625 31.585938 -7.144531 35.234375 -5.625 C 38.890625 -4.101562 42.96875 -3.34375 47.46875 -3.34375 C 50.082031 -3.34375 52.5 -3.585938 54.71875 -4.078125 C 56.945312 -4.566406 59.113281 -5.425781 61.21875 -6.65625 C 63.332031 -7.882812 65.4375 -9.5625 67.53125 -11.6875 C 69.625 -13.820312 71.84375 -16.546875 74.1875 -19.859375 Z M 75.875 -18.640625 "/></g></g></g><g fill="#ffffff" fill-opacity="1"><g transform="translate(823.575013, 533.249993)"><g><path d="M 50.21875 0 L 50.21875 -2.234375 L 53.140625 -2.234375 C 56.390625 -2.234375 58.734375 -3.1875 60.171875 -5.09375 C 60.609375 -5.6875 60.972656 -6.722656 61.265625 -8.203125 C 61.554688 -9.691406 61.703125 -11.664062 61.703125 -14.125 L 61.703125 -38.328125 L 24.609375 -38.328125 L 24.609375 -14.125 C 24.609375 -11.425781 24.722656 -9.394531 24.953125 -8.03125 C 25.191406 -6.664062 25.585938 -5.648438 26.140625 -4.984375 C 26.796875 -4.160156 27.804688 -3.492188 29.171875 -2.984375 C 30.546875 -2.484375 31.914062 -2.234375 33.28125 -2.234375 L 36.15625 -2.234375 L 36.15625 0 L 2.109375 0 L 2.109375 -2.234375 L 4.984375 -2.234375 C 8.109375 -2.234375 10.453125 -3.1875 12.015625 -5.09375 C 12.953125 -6.34375 13.421875 -9.351562 13.421875 -14.125 L 13.421875 -65.453125 C 13.421875 -66.859375 13.390625 -68.054688 13.328125 -69.046875 C 13.273438 -70.046875 13.1875 -70.894531 13.0625 -71.59375 C 12.945312 -72.300781 12.78125 -72.898438 12.5625 -73.390625 C 12.351562 -73.878906 12.09375 -74.316406 11.78125 -74.703125 C 11.507812 -75.054688 11.109375 -75.390625 10.578125 -75.703125 C 10.046875 -76.015625 9.457031 -76.296875 8.8125 -76.546875 C 8.175781 -76.804688 7.523438 -77.003906 6.859375 -77.140625 C 6.191406 -77.273438 5.566406 -77.34375 4.984375 -77.34375 L 2.109375 -77.34375 L 2.109375 -79.453125 L 36.15625 -79.453125 L 36.15625 -77.34375 L 33.28125 -77.34375 C 31.957031 -77.34375 30.6875 -77.15625 29.46875 -76.78125 C 28.257812 -76.414062 27.242188 -75.765625 26.421875 -74.828125 C 26.148438 -74.515625 25.894531 -74.132812 25.65625 -73.6875 C 25.425781 -73.238281 25.234375 -72.648438 25.078125 -71.921875 C 24.921875 -71.203125 24.800781 -70.320312 24.71875 -69.28125 C 24.644531 -68.25 24.609375 -66.972656 24.609375 -65.453125 L 24.609375 -42.65625 L 61.703125 -42.65625 L 61.703125 -65.453125 C 61.703125 -68.335938 61.546875 -70.484375 61.234375 -71.890625 C 60.921875 -73.296875 60.488281 -74.273438 59.9375 -74.828125 C 59.15625 -75.609375 58.160156 -76.222656 56.953125 -76.671875 C 55.742188 -77.117188 54.472656 -77.34375 53.140625 -77.34375 L 50.21875 -77.34375 L 50.21875 -79.453125 L 84.3125 -79.453125 L 84.3125 -77.34375 L 81.453125 -77.34375 C 80.273438 -77.34375 79.039062 -77.128906 77.75 -76.703125 C 76.46875 -76.273438 75.414062 -75.648438 74.59375 -74.828125 C 74.164062 -74.359375 73.832031 -73.898438 73.59375 -73.453125 C 73.363281 -73.003906 73.1875 -72.445312 73.0625 -71.78125 C 72.945312 -71.113281 72.878906 -70.28125 72.859375 -69.28125 C 72.835938 -68.289062 72.828125 -67.015625 72.828125 -65.453125 L 72.828125 -14.125 C 72.828125 -12.832031 72.835938 -11.71875 72.859375 -10.78125 C 72.878906 -9.84375 72.9375 -9.019531 73.03125 -8.3125 C 73.132812 -7.613281 73.28125 -7.007812 73.46875 -6.5 C 73.664062 -6 73.921875 -5.53125 74.234375 -5.09375 C 74.941406 -4.082031 75.976562 -3.351562 77.34375 -2.90625 C 78.707031 -2.457031 80.078125 -2.234375 81.453125 -2.234375 L 84.3125 -2.234375 L 84.3125 0 Z M 50.21875 0 "/></g></g></g><g fill="#ffffff" fill-opacity="1"><g transform="translate(924.74996, 533.249993)"><g><path d="M 2.984375 0 L 2.984375 -2.234375 L 5.859375 -2.234375 C 7.503906 -2.234375 8.890625 -2.457031 10.015625 -2.90625 C 11.148438 -3.351562 12.109375 -4.082031 12.890625 -5.09375 C 13.828125 -6.1875 14.296875 -9.195312 14.296875 -14.125 L 14.296875 -65.453125 C 14.296875 -66.816406 14.285156 -67.976562 14.265625 -68.9375 C 14.242188 -69.894531 14.191406 -70.710938 14.109375 -71.390625 C 14.035156 -72.078125 13.910156 -72.65625 13.734375 -73.125 C 13.566406 -73.59375 13.328125 -74.003906 13.015625 -74.359375 C 12.265625 -75.296875 11.222656 -76.023438 9.890625 -76.546875 C 8.566406 -77.078125 7.222656 -77.34375 5.859375 -77.34375 L 2.984375 -77.34375 L 2.984375 -79.453125 L 37.03125 -79.453125 L 37.03125 -77.34375 L 34.15625 -77.34375 C 31.03125 -77.34375 28.6875 -76.382812 27.125 -74.46875 C 26.695312 -73.8125 26.347656 -72.738281 26.078125 -71.25 C 25.804688 -69.769531 25.671875 -67.835938 25.671875 -65.453125 L 25.671875 -14.125 C 25.671875 -11.539062 25.785156 -9.546875 26.015625 -8.140625 C 26.253906 -6.734375 26.585938 -5.679688 27.015625 -4.984375 C 27.210938 -4.671875 27.5625 -4.347656 28.0625 -4.015625 C 28.570312 -3.679688 29.164062 -3.382812 29.84375 -3.125 C 30.53125 -2.875 31.242188 -2.660156 31.984375 -2.484375 C 32.734375 -2.316406 33.457031 -2.234375 34.15625 -2.234375 L 37.03125 -2.234375 L 37.03125 0 Z M 2.984375 0 "/></g></g></g><g clip-path="url(#983efbe45f)"><path fill="#ffffff" d="M 680.160156 333.066406 L 686.417969 333.066406 L 686.417969 524.589844 L 680.160156 524.589844 L 680.160156 333.066406 " fill-opacity="1" fill-rule="nonzero"/></g><g fill="#ffffff" fill-opacity="1"><g transform="translate(615.14645, 443.999998)"><g><path d="M 9.15625 0.203125 C 9.15625 1.035156 8.992188 1.789062 8.671875 2.46875 C 8.359375 3.15625 7.9375 3.765625 7.40625 4.296875 C 6.875 4.828125 6.253906 5.289062 5.546875 5.6875 C 4.847656 6.09375 4.113281 6.429688 3.34375 6.703125 L 3.34375 5.796875 C 3.832031 5.671875 4.328125 5.453125 4.828125 5.140625 C 5.335938 4.835938 5.789062 4.472656 6.1875 4.046875 C 6.582031 3.617188 6.90625 3.125 7.15625 2.5625 C 7.414062 2.007812 7.546875 1.410156 7.546875 0.765625 C 7.546875 0.617188 7.519531 0.453125 7.46875 0.265625 C 7.414062 0.0859375 7.300781 0 7.125 0 C 6.96875 0 6.820312 0.0234375 6.6875 0.078125 C 6.550781 0.140625 6.414062 0.207031 6.28125 0.28125 C 6.144531 0.363281 6.007812 0.4375 5.875 0.5 C 5.738281 0.5625 5.59375 0.59375 5.4375 0.59375 C 5.15625 0.59375 4.890625 0.546875 4.640625 0.453125 C 4.390625 0.367188 4.164062 0.234375 3.96875 0.046875 C 3.78125 -0.128906 3.628906 -0.351562 3.515625 -0.625 C 3.398438 -0.894531 3.34375 -1.226562 3.34375 -1.625 C 3.34375 -1.976562 3.410156 -2.289062 3.546875 -2.5625 C 3.679688 -2.84375 3.863281 -3.082031 4.09375 -3.28125 C 4.332031 -3.476562 4.601562 -3.628906 4.90625 -3.734375 C 5.21875 -3.835938 5.539062 -3.890625 5.875 -3.890625 C 6.257812 -3.890625 6.644531 -3.800781 7.03125 -3.625 C 7.425781 -3.445312 7.78125 -3.1875 8.09375 -2.84375 C 8.40625 -2.507812 8.660156 -2.085938 8.859375 -1.578125 C 9.054688 -1.078125 9.15625 -0.484375 9.15625 0.203125 Z M 8.265625 -16.3125 C 8.265625 -15.988281 8.203125 -15.695312 8.078125 -15.4375 C 7.953125 -15.175781 7.785156 -14.945312 7.578125 -14.75 C 7.378906 -14.5625 7.15625 -14.421875 6.90625 -14.328125 C 6.65625 -14.234375 6.398438 -14.1875 6.140625 -14.1875 C 5.835938 -14.1875 5.550781 -14.238281 5.28125 -14.34375 C 5.019531 -14.457031 4.785156 -14.609375 4.578125 -14.796875 C 4.378906 -14.992188 4.21875 -15.21875 4.09375 -15.46875 C 3.976562 -15.726562 3.921875 -16.007812 3.921875 -16.3125 C 3.921875 -16.625 3.976562 -16.910156 4.09375 -17.171875 C 4.21875 -17.441406 4.378906 -17.671875 4.578125 -17.859375 C 4.785156 -18.046875 5.019531 -18.195312 5.28125 -18.3125 C 5.550781 -18.425781 5.835938 -18.484375 6.140625 -18.484375 C 6.421875 -18.484375 6.6875 -18.425781 6.9375 -18.3125 C 7.195312 -18.195312 7.421875 -18.046875 7.609375 -17.859375 C 7.804688 -17.671875 7.960938 -17.441406 8.078125 -17.171875 C 8.203125 -16.910156 8.265625 -16.625 8.265625 -16.3125 Z M 8.265625 -16.3125 "/></g></g></g><g fill="#ffffff" fill-opacity="1"><g transform="translate(969.878165, 538.25231)"><g><path d="M 63 -21.140625 C 63 -18.003906 62.359375 -15.03125 61.078125 -12.21875 C 59.796875 -9.40625 57.992188 -6.953125 55.671875 -4.859375 C 53.347656 -2.765625 50.585938 -1.109375 47.390625 0.109375 C 44.191406 1.335938 40.675781 1.953125 36.84375 1.953125 C 34.039062 1.953125 31.476562 1.707031 29.15625 1.21875 C 26.832031 0.726562 24.753906 0.179688 22.921875 -0.421875 C 21.085938 -1.035156 19.476562 -1.585938 18.09375 -2.078125 C 16.707031 -2.566406 15.523438 -2.8125 14.546875 -2.8125 C 13.566406 -2.8125 12.769531 -2.460938 12.15625 -1.765625 C 11.550781 -1.078125 11.101562 0.160156 10.8125 1.953125 L 8.609375 1.953125 L 8.609375 -26.515625 L 10.8125 -26.515625 C 11.34375 -22.242188 12.367188 -18.609375 13.890625 -15.609375 C 15.421875 -12.617188 17.296875 -10.175781 19.515625 -8.28125 C 21.742188 -6.382812 24.234375 -5.007812 26.984375 -4.15625 C 29.734375 -3.300781 32.570312 -2.875 35.5 -2.875 C 38.03125 -2.875 40.320312 -3.238281 42.375 -3.96875 C 44.4375 -4.707031 46.179688 -5.695312 47.609375 -6.9375 C 49.035156 -8.175781 50.132812 -9.609375 50.90625 -11.234375 C 51.675781 -12.867188 52.0625 -14.601562 52.0625 -16.4375 C 52.0625 -18.476562 51.703125 -20.269531 50.984375 -21.8125 C 50.273438 -23.363281 49.125 -24.863281 47.53125 -26.3125 C 45.945312 -27.757812 43.878906 -29.265625 41.328125 -30.828125 C 38.785156 -32.398438 35.703125 -34.203125 32.078125 -36.234375 C 27.148438 -39.003906 23.117188 -41.476562 19.984375 -43.65625 C 16.847656 -45.84375 14.382812 -47.941406 12.59375 -49.953125 C 10.800781 -51.972656 9.578125 -54.007812 8.921875 -56.0625 C 8.265625 -58.125 7.9375 -60.4375 7.9375 -63 C 7.9375 -65.9375 8.5 -68.71875 9.625 -71.34375 C 10.75 -73.976562 12.359375 -76.289062 14.453125 -78.28125 C 16.546875 -80.28125 19.078125 -81.867188 22.046875 -83.046875 C 25.023438 -84.234375 28.367188 -84.828125 32.078125 -84.828125 C 34.484375 -84.828125 36.671875 -84.582031 38.640625 -84.09375 C 40.617188 -83.601562 42.382812 -83.0625 43.9375 -82.46875 C 45.488281 -81.875 46.863281 -81.34375 48.0625 -80.875 C 49.257812 -80.40625 50.3125 -80.171875 51.21875 -80.171875 C 52.144531 -80.171875 52.925781 -80.503906 53.5625 -81.171875 C 54.195312 -81.847656 54.738281 -83.066406 55.1875 -84.828125 L 57.4375 -84.828125 L 57.4375 -56.09375 L 55.1875 -56.09375 C 54.78125 -60.007812 53.90625 -63.453125 52.5625 -66.421875 C 51.21875 -69.398438 49.515625 -71.894531 47.453125 -73.90625 C 45.390625 -75.925781 43.054688 -77.445312 40.453125 -78.46875 C 37.847656 -79.488281 35.078125 -80 32.140625 -80 C 30.148438 -80 28.265625 -79.648438 26.484375 -78.953125 C 24.710938 -78.265625 23.175781 -77.335938 21.875 -76.171875 C 20.570312 -75.015625 19.53125 -73.660156 18.75 -72.109375 C 17.976562 -70.566406 17.59375 -68.9375 17.59375 -67.21875 C 17.59375 -65.59375 17.898438 -64.097656 18.515625 -62.734375 C 19.128906 -61.367188 20.207031 -59.960938 21.75 -58.515625 C 23.300781 -57.066406 25.410156 -55.503906 28.078125 -53.828125 C 30.742188 -52.160156 34.113281 -50.226562 38.1875 -48.03125 C 42.144531 -45.914062 45.414062 -44.050781 48 -42.4375 C 50.59375 -40.832031 52.617188 -39.476562 54.078125 -38.375 C 56.890625 -36.300781 59.078125 -33.765625 60.640625 -30.765625 C 62.210938 -27.773438 63 -24.566406 63 -21.140625 Z M 63 -21.140625 "/></g></g></g><path stroke-linecap="butt" transform="matrix(3.127382, 0, 0, 3.129092, 444.749984, 556.244584)" fill="none" stroke-linejoin="miter" d="M 0.00000516488 0.000482483 L 171.595459 0.000482483 " stroke="#ffffff" stroke-width="1" stroke-opacity="1" stroke-miterlimit="4"/><path stroke-linecap="butt" transform="matrix(0.000000000000000194, -3.165362, 3.129092, 0.000000000000000192, 446.310464, 556.24048)" fill="none" stroke-linejoin="miter" d="M -0.000539428 -0.000597624 L 7.416168 -0.000597624 " stroke="#ffffff" stroke-width="1" stroke-opacity="1" stroke-miterlimit="4"/><path stroke-linecap="butt" transform="matrix(0.000000000000000194, -3.165362, 3.129092, 0.000000000000000192, 980.120933, 556.24048)" fill="none" stroke-linejoin="miter" d="M -0.000539428 0.0000514003 L 7.416168 0.0000514003 " stroke="#ffffff" stroke-width="1" stroke-opacity="1" stroke-miterlimit="4"/><g clip-path="url(#d124bbf3d5)"><path fill="#ffffff" d="M 446.628906 442.863281 C 421.15625 442.863281 400.476562 463.542969 400.476562 489.015625 C 400.476562 514.492188 421.15625 535.171875 446.628906 535.171875 C 472.105469 535.171875 492.785156 514.492188 492.785156 489.015625 C 492.785156 463.542969 472.105469 442.863281 446.628906 442.863281 Z M 446.628906 445.5 C 447.085938 445.5 447.535156 445.519531 447.988281 445.535156 C 447.992188 445.535156 447.996094 445.53125 448 445.535156 C 461.9375 446.246094 473.003906 457.761719 473.003906 471.875 C 473.003906 486.449219 461.203125 498.246094 446.628906 498.246094 C 435.644531 498.246094 426.242188 491.539062 422.273438 482 C 425.195312 485.972656 429.777344 488.636719 435.003906 488.960938 C 435.355469 489 435.714844 489.015625 436.078125 489.015625 C 436.441406 489.015625 436.800781 489 437.15625 488.960938 C 446.113281 488.402344 453.222656 480.96875 453.222656 471.875 C 453.222656 462.414062 445.539062 454.730469 436.078125 454.730469 C 430.410156 454.730469 425.394531 457.5 422.273438 461.75 C 426.078125 452.605469 434.867188 446.066406 445.257812 445.535156 C 445.261719 445.53125 445.265625 445.535156 445.273438 445.535156 C 445.722656 445.511719 446.171875 445.5 446.628906 445.5 Z M 433.375 447.558594 C 424.773438 452.257812 418.9375 461.386719 418.9375 471.875 C 418.9375 487.160156 431.34375 499.566406 446.628906 499.566406 C 461.914062 499.566406 474.320312 487.160156 474.320312 471.875 C 474.320312 461.386719 468.484375 452.257812 459.882812 447.558594 C 477.441406 453.160156 490.144531 469.589844 490.144531 489.015625 C 490.144531 513.066406 470.679688 532.535156 446.628906 532.535156 C 422.578125 532.535156 403.113281 513.066406 403.113281 489.015625 C 403.113281 469.589844 415.816406 453.160156 433.375 447.558594 Z M 436.078125 456.050781 C 444.828125 456.050781 451.902344 463.125 451.902344 471.875 C 451.902344 477.855469 448.589844 483.054688 443.699219 485.746094 C 445.507812 483.851562 446.628906 481.289062 446.628906 478.46875 C 446.628906 472.648438 441.898438 467.917969 436.078125 467.917969 C 430.261719 467.917969 425.53125 472.648438 425.53125 478.46875 C 425.53125 481.289062 426.648438 483.851562 428.460938 485.746094 C 423.570312 483.054688 420.253906 477.855469 420.253906 471.875 C 420.253906 463.125 427.332031 456.050781 436.078125 456.050781 Z M 436.078125 469.234375 C 438.957031 469.234375 441.523438 470.546875 443.214844 472.605469 C 442.316406 472.148438 441.25 471.875 440.035156 471.875 C 437.894531 471.875 436.203125 472.699219 435.09375 473.949219 C 433.984375 475.199219 433.441406 476.835938 433.441406 478.46875 C 433.441406 480.097656 433.984375 481.734375 435.09375 482.984375 C 436.203125 484.234375 437.894531 485.058594 440.035156 485.058594 C 441.25 485.058594 442.316406 484.789062 443.214844 484.328125 C 441.714844 486.15625 439.523438 487.394531 437.039062 487.648438 C 436.722656 487.667969 436.402344 487.699219 436.078125 487.699219 C 435.753906 487.699219 435.4375 487.667969 435.117188 487.648438 C 430.464844 487.167969 426.847656 483.25 426.847656 478.46875 C 426.847656 473.359375 430.972656 469.234375 436.078125 469.234375 Z M 440.035156 473.191406 C 440.269531 473.191406 440.46875 473.234375 440.683594 473.253906 C 441.269531 473.371094 441.695312 473.640625 442.015625 474 C 442.445312 474.484375 442.671875 475.152344 442.671875 475.828125 C 442.671875 476.507812 442.445312 477.175781 442.015625 477.660156 C 441.585938 478.140625 440.96875 478.46875 440.035156 478.46875 C 439.101562 478.46875 438.484375 478.140625 438.054688 477.660156 C 437.625 477.175781 437.398438 476.507812 437.398438 475.828125 C 437.398438 475.152344 437.625 474.484375 438.054688 474 C 438.484375 473.519531 439.101562 473.191406 440.035156 473.191406 Z M 436.253906 474.664062 C 436.148438 475.042969 436.078125 475.4375 436.078125 475.828125 C 436.078125 476.800781 436.402344 477.78125 437.070312 478.535156 C 437.742188 479.289062 438.773438 479.785156 440.035156 479.785156 C 441.300781 479.785156 442.328125 479.289062 443 478.535156 C 443.671875 477.78125 443.992188 476.800781 443.992188 475.828125 C 443.992188 475.4375 443.925781 475.042969 443.816406 474.664062 C 443.871094 474.71875 443.941406 474.765625 443.996094 474.824219 C 444.863281 475.800781 445.308594 477.128906 445.308594 478.46875 C 445.308594 479.804688 444.863281 481.132812 443.996094 482.109375 C 443.125 483.085938 441.847656 483.742188 440.035156 483.742188 C 438.222656 483.742188 436.945312 483.085938 436.078125 482.109375 C 435.207031 481.132812 434.761719 479.804688 434.761719 478.46875 C 434.761719 477.128906 435.207031 475.800781 436.078125 474.824219 C 436.128906 474.765625 436.199219 474.71875 436.253906 474.664062 Z M 413.675781 511.425781 C 413.410156 511.433594 413.21875 511.554688 413.101562 511.792969 C 412.984375 512.03125 413 512.257812 413.15625 512.472656 C 420.550781 523.003906 432.785156 529.894531 446.628906 529.894531 C 455.359375 529.894531 463.445312 527.152344 470.085938 522.484375 C 470.238281 522.382812 470.335938 522.242188 470.367188 522.058594 C 470.402344 521.875 470.367188 521.710938 470.261719 521.558594 C 470.152344 521.40625 470.007812 521.316406 469.824219 521.285156 C 469.644531 521.253906 469.476562 521.296875 469.328125 521.40625 C 462.902344 525.921875 455.082031 528.578125 446.628906 528.578125 C 433.222656 528.578125 421.394531 521.910156 414.234375 511.714844 C 414.101562 511.515625 413.914062 511.421875 413.675781 511.425781 Z M 479.5625 511.425781 C 479.332031 511.429688 479.152344 511.523438 479.023438 511.714844 C 478.71875 512.148438 478.386719 512.574219 478.054688 513.011719 C 477.941406 513.15625 477.894531 513.316406 477.917969 513.5 C 477.941406 513.679688 478.027344 513.828125 478.171875 513.9375 C 478.316406 514.050781 478.480469 514.09375 478.660156 514.070312 C 478.84375 514.046875 478.988281 513.960938 479.097656 513.8125 C 479.429688 513.378906 479.773438 512.9375 480.101562 512.472656 C 480.257812 512.253906 480.277344 512.023438 480.152344 511.785156 C 480.03125 511.542969 479.832031 511.425781 479.5625 511.425781 Z M 476.40625 515.382812 C 476.203125 515.378906 476.03125 515.453125 475.898438 515.605469 C 475.078125 516.511719 474.207031 517.371094 473.304688 518.199219 C 473.167969 518.324219 473.097656 518.476562 473.089844 518.660156 C 473.082031 518.839844 473.136719 519 473.261719 519.132812 C 473.382812 519.269531 473.539062 519.339844 473.71875 519.347656 C 473.902344 519.355469 474.0625 519.296875 474.195312 519.175781 C 475.125 518.320312 476.023438 517.429688 476.875 516.492188 C 477.070312 516.285156 477.109375 516.046875 477 515.785156 C 476.890625 515.523438 476.691406 515.386719 476.40625 515.382812 Z M 476.40625 515.382812 " fill-opacity="1" fill-rule="nonzero"/></g><g fill="#ffffff" fill-opacity="1"><g transform="translate(837.221511, 311.749984)"><g><path d="M 9.15625 0.203125 C 9.15625 1.035156 8.992188 1.789062 8.671875 2.46875 C 8.359375 3.15625 7.9375 3.765625 7.40625 4.296875 C 6.875 4.828125 6.253906 5.289062 5.546875 5.6875 C 4.847656 6.09375 4.113281 6.429688 3.34375 6.703125 L 3.34375 5.796875 C 3.832031 5.671875 4.328125 5.453125 4.828125 5.140625 C 5.335938 4.835938 5.789062 4.472656 6.1875 4.046875 C 6.582031 3.617188 6.90625 3.125 7.15625 2.5625 C 7.414062 2.007812 7.546875 1.410156 7.546875 0.765625 C 7.546875 0.617188 7.519531 0.453125 7.46875 0.265625 C 7.414062 0.0859375 7.300781 0 7.125 0 C 6.96875 0 6.820312 0.0234375 6.6875 0.078125 C 6.550781 0.140625 6.414062 0.207031 6.28125 0.28125 C 6.144531 0.363281 6.007812 0.4375 5.875 0.5 C 5.738281 0.5625 5.59375 0.59375 5.4375 0.59375 C 5.15625 0.59375 4.890625 0.546875 4.640625 0.453125 C 4.390625 0.367188 4.164062 0.234375 3.96875 0.046875 C 3.78125 -0.128906 3.628906 -0.351562 3.515625 -0.625 C 3.398438 -0.894531 3.34375 -1.226562 3.34375 -1.625 C 3.34375 -1.976562 3.410156 -2.289062 3.546875 -2.5625 C 3.679688 -2.84375 3.863281 -3.082031 4.09375 -3.28125 C 4.332031 -3.476562 4.601562 -3.628906 4.90625 -3.734375 C 5.21875 -3.835938 5.539062 -3.890625 5.875 -3.890625 C 6.257812 -3.890625 6.644531 -3.800781 7.03125 -3.625 C 7.425781 -3.445312 7.78125 -3.1875 8.09375 -2.84375 C 8.40625 -2.507812 8.660156 -2.085938 8.859375 -1.578125 C 9.054688 -1.078125 9.15625 -0.484375 9.15625 0.203125 Z M 8.265625 -16.3125 C 8.265625 -15.988281 8.203125 -15.695312 8.078125 -15.4375 C 7.953125 -15.175781 7.785156 -14.945312 7.578125 -14.75 C 7.378906 -14.5625 7.15625 -14.421875 6.90625 -14.328125 C 6.65625 -14.234375 6.398438 -14.1875 6.140625 -14.1875 C 5.835938 -14.1875 5.550781 -14.238281 5.28125 -14.34375 C 5.019531 -14.457031 4.785156 -14.609375 4.578125 -14.796875 C 4.378906 -14.992188 4.21875 -15.21875 4.09375 -15.46875 C 3.976562 -15.726562 3.921875 -16.007812 3.921875 -16.3125 C 3.921875 -16.625 3.976562 -16.910156 4.09375 -17.171875 C 4.21875 -17.441406 4.378906 -17.671875 4.578125 -17.859375 C 4.785156 -18.046875 5.019531 -18.195312 5.28125 -18.3125 C 5.550781 -18.425781 5.835938 -18.484375 6.140625 -18.484375 C 6.421875 -18.484375 6.6875 -18.425781 6.9375 -18.3125 C 7.195312 -18.195312 7.421875 -18.046875 7.609375 -17.859375 C 7.804688 -17.671875 7.960938 -17.441406 8.078125 -17.171875 C 8.203125 -16.910156 8.265625 -16.625 8.265625 -16.3125 Z M 8.265625 -16.3125 "/></g></g></g><g fill="#ffffff" fill-opacity="1"><g transform="translate(939.146434, 443.999998)"><g><path d="M 9.15625 0.203125 C 9.15625 1.035156 8.992188 1.789062 8.671875 2.46875 C 8.359375 3.15625 7.9375 3.765625 7.40625 4.296875 C 6.875 4.828125 6.253906 5.289062 5.546875 5.6875 C 4.847656 6.09375 4.113281 6.429688 3.34375 6.703125 L 3.34375 5.796875 C 3.832031 5.671875 4.328125 5.453125 4.828125 5.140625 C 5.335938 4.835938 5.789062 4.472656 6.1875 4.046875 C 6.582031 3.617188 6.90625 3.125 7.15625 2.5625 C 7.414062 2.007812 7.546875 1.410156 7.546875 0.765625 C 7.546875 0.617188 7.519531 0.453125 7.46875 0.265625 C 7.414062 0.0859375 7.300781 0 7.125 0 C 6.96875 0 6.820312 0.0234375 6.6875 0.078125 C 6.550781 0.140625 6.414062 0.207031 6.28125 0.28125 C 6.144531 0.363281 6.007812 0.4375 5.875 0.5 C 5.738281 0.5625 5.59375 0.59375 5.4375 0.59375 C 5.15625 0.59375 4.890625 0.546875 4.640625 0.453125 C 4.390625 0.367188 4.164062 0.234375 3.96875 0.046875 C 3.78125 -0.128906 3.628906 -0.351562 3.515625 -0.625 C 3.398438 -0.894531 3.34375 -1.226562 3.34375 -1.625 C 3.34375 -1.976562 3.410156 -2.289062 3.546875 -2.5625 C 3.679688 -2.84375 3.863281 -3.082031 4.09375 -3.28125 C 4.332031 -3.476562 4.601562 -3.628906 4.90625 -3.734375 C 5.21875 -3.835938 5.539062 -3.890625 5.875 -3.890625 C 6.257812 -3.890625 6.644531 -3.800781 7.03125 -3.625 C 7.425781 -3.445312 7.78125 -3.1875 8.09375 -2.84375 C 8.40625 -2.507812 8.660156 -2.085938 8.859375 -1.578125 C 9.054688 -1.078125 9.15625 -0.484375 9.15625 0.203125 Z M 8.265625 -16.3125 C 8.265625 -15.988281 8.203125 -15.695312 8.078125 -15.4375 C 7.953125 -15.175781 7.785156 -14.945312 7.578125 -14.75 C 7.378906 -14.5625 7.15625 -14.421875 6.90625 -14.328125 C 6.65625 -14.234375 6.398438 -14.1875 6.140625 -14.1875 C 5.835938 -14.1875 5.550781 -14.238281 5.28125 -14.34375 C 5.019531 -14.457031 4.785156 -14.609375 4.578125 -14.796875 C 4.378906 -14.992188 4.21875 -15.21875 4.09375 -15.46875 C 3.976562 -15.726562 3.921875 -16.007812 3.921875 -16.3125 C 3.921875 -16.625 3.976562 -16.910156 4.09375 -17.171875 C 4.21875 -17.441406 4.378906 -17.671875 4.578125 -17.859375 C 4.785156 -18.046875 5.019531 -18.195312 5.28125 -18.3125 C 5.550781 -18.425781 5.835938 -18.484375 6.140625 -18.484375 C 6.421875 -18.484375 6.6875 -18.425781 6.9375 -18.3125 C 7.195312 -18.195312 7.421875 -18.046875 7.609375 -17.859375 C 7.804688 -17.671875 7.960938 -17.441406 8.078125 -17.171875 C 8.203125 -16.910156 8.265625 -16.625 8.265625 -16.3125 Z M 8.265625 -16.3125 "/></g></g></g></svg>